<svg width="24" height="24" viewBox="0 0 24 24" fill="none" xmlns="http://www.w3.org/2000/svg">
<g clip-path="url(#clip0_1030_2604)">
<path d="M19.42 10.71C19.4007 10.6223 19.3484 10.5453 19.274 10.495C19.1995 10.4448 19.1086 10.4251 19.02 10.44C18.975 10.4472 18.932 10.4634 18.8934 10.4876C18.8548 10.5117 18.8214 10.5434 18.7953 10.5807C18.7692 10.618 18.7508 10.6602 18.7413 10.7047C18.7318 10.7493 18.7314 10.7953 18.74 10.84C18.8766 11.8573 18.9335 12.8838 18.91 13.91C18.91 16.82 18.64 20.39 18.63 21.25C18.63 21.54 18.31 21.64 17.97 21.77C17.32 22.01 16.47 22.12 15.97 22.26C14.8325 22.5467 13.6708 22.7275 12.5 22.8C10.74 22.92 8.95999 22.86 7.12999 22.8C6.32999 22.8 4.84999 22.86 3.52999 22.75C2.83619 22.7386 2.15338 22.5748 1.52999 22.27C1.4739 22.0662 1.43049 21.8591 1.39999 21.65C1.27445 20.3206 1.23104 18.9847 1.26999 17.65C1.26999 14.83 1.44999 11.57 1.60999 10.03C1.62211 9.19529 1.69901 8.36279 1.83999 7.53999C1.94256 7.09455 2.21533 6.70692 2.59999 6.45999C3.79693 5.95552 5.08113 5.69052 6.37999 5.67999C8.97999 5.50999 11.84 5.67999 12.47 5.67999C12.5414 5.66701 12.606 5.62936 12.6525 5.57363C12.6991 5.51789 12.7245 5.44759 12.7245 5.37499C12.7245 5.30239 12.6991 5.2321 12.6525 5.17636C12.606 5.12062 12.5414 5.08298 12.47 5.06999C10.0871 4.89794 7.6958 4.87456 5.30999 4.99999C4.22668 5.03516 3.1604 5.27966 2.16999 5.71999C1.87809 5.89752 1.62435 6.13126 1.4235 6.40763C1.22265 6.68401 1.0787 6.99753 0.999993 7.32999C0.811901 8.20916 0.694856 9.10205 0.649993 9.99999C0.429993 11.8 0.139993 15.91 0.129993 19C0.0879692 20.2063 0.178512 21.4135 0.399993 22.6C0.458309 22.8467 0.595175 23.0678 0.789993 23.23C1.39014 23.6171 2.07779 23.8474 2.78999 23.9C4.22274 24.0308 5.66272 24.0642 7.09999 24C8.95999 24 10.77 24 12.55 23.86C13.7837 23.7587 15.0054 23.5444 16.2 23.22C17.0484 23.053 17.8788 22.8052 18.68 22.48C18.9212 22.3787 19.1289 22.2114 19.2792 21.9974C19.4296 21.7834 19.5165 21.5312 19.53 21.27C19.53 20.41 19.7 16.84 19.65 13.93C19.6547 12.8524 19.5778 11.776 19.42 10.71Z" fill="black"/>
<path d="M23.6 1.59C23.524 1.145 23.3148 0.733533 23 0.409998C21.9204 -0.0641082 20.7138 -0.166117 19.57 0.119998C17.1678 0.51684 14.8192 1.18789 12.57 2.12C12.4342 2.17673 12.3217 2.27784 12.2508 2.40682C12.18 2.53579 12.155 2.68498 12.18 2.83C12.2018 2.94167 12.2481 3.04711 12.3155 3.13876C12.3829 3.2304 12.4698 3.30596 12.57 3.36C13.5433 3.72543 14.5472 4.0032 15.57 4.19C15.7328 4.23677 15.8904 4.30045 16.04 4.38C15.17 5.38 13.83 7.02 12.4 8.83C7.64996 14.67 7.44996 15 8.04996 15.9C8.40996 16.46 9.26996 16.65 10.12 15.9C15.12 11.9 17.99 9.73 19.48 8.56L20 8.17C20.2888 8.8786 20.6614 9.55005 21.11 10.17C21.2532 10.3696 21.4649 10.5094 21.7047 10.5629C21.9444 10.6164 22.1955 10.5798 22.41 10.46C22.8807 10.0711 23.208 9.53613 23.34 8.94C23.6357 7.82293 23.8002 6.67517 23.83 5.52C23.9127 4.20552 23.8355 2.88585 23.6 1.59ZM22.7 5.48C22.6832 6.53885 22.5456 7.59233 22.29 8.62C22.2283 8.88532 22.1307 9.14101 22 9.38C21.9 9.22 21.62 9.04 21.48 8.79C21.09 8.11 20.75 7.3 20.58 7.05C20.5321 6.99143 20.4719 6.94424 20.4036 6.91183C20.3352 6.87942 20.2606 6.8626 20.185 6.8626C20.1094 6.8626 20.0347 6.87942 19.9664 6.91183C19.8981 6.94424 19.8378 6.99143 19.79 7.05C19.4948 7.34657 19.1808 7.62381 18.85 7.88C17.39 9 14.51 11.24 9.63996 15.38C9.22996 15.72 8.82996 15.77 8.63996 15.51C8.24996 14.93 8.85996 14.12 12.9 9.27C14.67 7.16 16.28 5.27 17.11 4.44C17.1773 4.35644 17.2141 4.25233 17.2141 4.145C17.2141 4.03766 17.1773 3.93356 17.11 3.85C16.8253 3.59788 16.4812 3.42237 16.11 3.34C15.46 3.14 14.11 3.02 13.45 2.81C15.1682 2.20906 16.93 1.74102 18.72 1.41C19.6086 1.22948 20.5132 1.13902 21.42 1.14C21.7119 1.12688 22.0021 1.1925 22.26 1.33C22.36 1.4 22.38 1.6 22.44 1.85C22.6736 3.04496 22.7609 4.26393 22.7 5.48Z" fill="black"/>
</g>
<defs>
<clipPath id="clip0_1030_2604">
<rect width="24" height="24" fill="white"/>
</clipPath>
</defs>
</svg>
