<svg width="24" height="24" viewBox="0 0 24 24" fill="none" xmlns="http://www.w3.org/2000/svg">
<g clip-path="url(#clip0_1031_3165)">
<path fill-rule="evenodd" clip-rule="evenodd" d="M24 21.19C23.86 20.19 22.58 19.11 21.95 18.67L21.28 18.2C20.6 17.69 20.85 17.46 20.45 17.46C20.45 16.46 20.58 15.53 20.58 14.66V13.46C20.58 13.07 20.5 12.66 20.44 12.26C20.3 11.39 20.11 10.51 19.87 9.48997C19.8551 9.38799 19.8005 9.29604 19.7181 9.23421C19.6356 9.17237 19.5321 9.14569 19.43 9.15997C19.3798 9.16726 19.3316 9.18451 19.2882 9.21071C19.2448 9.23691 19.2071 9.27153 19.1773 9.31253C19.1474 9.35353 19.1261 9.40009 19.1146 9.44945C19.103 9.49882 19.1015 9.55 19.11 9.59997C19.18 10.66 19.18 11.6 19.22 12.45C19.22 13.09 19.22 13.71 19.33 14.34C19.44 15.34 19.63 16.34 19.81 17.48H17.88C16.68 17.43 15.47 17.3 14.27 17.22C13.45 17.17 12.64 17.14 11.83 17.12C10.83 17.12 9.87999 17.12 8.90999 17.23C7.45999 17.34 6.02999 17.53 4.57999 17.71C4.48982 17.71 4.40334 17.7458 4.33957 17.8096C4.27581 17.8733 4.23999 17.9598 4.23999 18.05C4.23999 18.1401 4.27581 18.2266 4.33957 18.2904C4.40334 18.3542 4.48982 18.39 4.57999 18.39H7.45999C8.88999 18.39 10.31 18.39 11.75 18.47C12.61 18.47 13.47 18.52 14.34 18.54C15.21 18.56 16.08 18.54 16.95 18.54C17.95 18.54 19.01 18.46 20.02 18.36L20.77 18.95L21.44 19.47C21.8026 19.732 22.1376 20.0302 22.44 20.36L18.31 20H14.23C12.23 20 10.16 20.12 8.12999 20.12C6.44999 20.18 4.74999 20.41 3.05999 20.47H1.25999C1.4434 20.0128 1.69271 19.585 1.99999 19.2L2.67999 18.59L3.67999 17.93C3.75956 17.8875 3.819 17.8152 3.84526 17.729C3.87152 17.6427 3.86243 17.5495 3.81999 17.47C3.78262 17.4111 3.72804 17.3651 3.66364 17.3382C3.59923 17.3114 3.52814 17.305 3.45999 17.32L3.59999 15.48C3.66999 14.57 3.77999 13.67 3.84999 12.75C3.91999 11.83 3.99999 10.93 3.99999 9.99997C3.88999 7.65997 3.79999 8.75997 4.99999 8.55997L7.36999 8.12997C7.46284 8.10124 7.54162 8.03888 7.59089 7.9551C7.64015 7.87132 7.65637 7.77217 7.63634 7.67706C7.61632 7.58195 7.56151 7.49775 7.48264 7.44094C7.40378 7.38414 7.30654 7.35883 7.20999 7.36997L4.89999 7.56997C4.71999 7.56997 3.89999 7.49997 3.49999 7.56997C3.39604 7.58188 3.29555 7.61457 3.2045 7.66611C3.11345 7.71765 3.0337 7.78698 2.96999 7.86997C2.86009 8.05649 2.79186 8.26459 2.76999 8.47997C2.69999 8.95997 2.76999 9.70997 2.76999 9.97997C2.76999 10.9 2.66999 11.82 2.65999 12.73C2.64999 13.64 2.65999 14.57 2.72999 15.49L2.81999 17.72L2.32999 18.02L1.51999 18.68C0.855263 19.3221 0.360449 20.1193 0.0799908 21C-0.0467426 21.3565 -0.0538019 21.7446 0.0598826 22.1055C0.173567 22.4664 0.401799 22.7804 0.709991 23C1.04489 23.2212 1.42345 23.3679 1.81999 23.43C2.33006 23.5009 2.84531 23.5277 3.35999 23.51L6.63999 23.65C9.49999 23.65 12.36 23.82 15.21 23.83C16.45 23.83 17.69 23.83 18.93 23.7L21 23.38L22.28 23.05L23.13 22.69C23.4258 22.5787 23.674 22.3685 23.8325 22.0951C23.9911 21.8218 24.0502 21.502 24 21.19ZM22.68 21.8L21.98 22.06L20.81 22.32L18.89 22.5H16.46C13.19 22.5 9.91999 22.3 6.64999 22.33H3.34999C2.89086 22.37 2.42912 22.37 1.96999 22.33C1.72099 22.2985 1.48013 22.2205 1.25999 22.1C1.10588 21.9904 0.992703 21.8326 0.938368 21.6515C0.884033 21.4703 0.891642 21.2763 0.959991 21.1C0.959991 21.1 0.959991 21.05 0.959991 21.03C1.64926 21.1302 2.34376 21.1903 3.03999 21.21C4.71999 21.27 6.42999 21.21 8.09999 21.21H12.2C14.2 21.16 16.27 21.02 18.3 20.95H22.87H22.93C22.9867 21.0183 23.0252 21.0998 23.0422 21.1869C23.0592 21.2741 23.054 21.3641 23.0271 21.4487C23.0002 21.5333 22.9525 21.6098 22.8884 21.6712C22.8242 21.7326 22.7457 21.7769 22.66 21.8H22.68Z" fill="black"/>
<path fill-rule="evenodd" clip-rule="evenodd" d="M9.40998 6.99998C9.75797 7.3225 10.1364 7.61051 10.54 7.85998C10.5786 7.89457 10.6236 7.92113 10.6726 7.9381C10.7215 7.95507 10.7734 7.96211 10.8251 7.95882C10.8768 7.95553 10.9273 7.94197 10.9737 7.91894C11.0201 7.8959 11.0615 7.86385 11.0954 7.82465C11.1293 7.78545 11.155 7.7399 11.1711 7.69065C11.1872 7.6414 11.1933 7.58943 11.189 7.53779C11.1848 7.48616 11.1703 7.43588 11.1465 7.3899C11.1226 7.34391 11.0898 7.30315 11.05 7.26998C10.7802 7.02973 10.5295 6.76895 10.3 6.48998C10.2036 6.36852 10.1415 6.22352 10.12 6.06998L10.29 5.80998C10.4707 5.53398 10.714 5.30444 11 5.13998C11.3315 4.94295 11.6929 4.8011 12.07 4.71998L12.5 4.64998C12.5 4.64998 12.42 4.74998 12.39 4.80998C11.935 5.58224 11.598 6.41813 11.39 7.28998C11.2991 7.62586 11.2974 7.97963 11.3851 8.31636C11.4728 8.65308 11.6468 8.9611 11.89 9.20998L12.66 9.99998C12.9144 10.2605 13.2352 10.4467 13.5876 10.5383C13.9401 10.6299 14.3109 10.6236 14.66 10.52C15.539 10.2855 16.3781 9.9215 17.15 9.43998C17.23 9.43998 17.3 9.32998 17.38 9.28998L17.29 9.79998C17.2089 10.177 17.067 10.5384 16.87 10.87C16.7019 11.1705 16.4655 11.4274 16.18 11.62L15.92 11.79C15.7664 11.7685 15.6214 11.7063 15.5 11.61C15.2234 11.3779 14.9628 11.1273 14.72 10.86C14.6517 10.7839 14.5564 10.7376 14.4544 10.7311C14.3524 10.7246 14.2519 10.7584 14.1746 10.8253C14.0972 10.8921 14.0492 10.9867 14.0409 11.0885C14.0326 11.1904 14.0646 11.2915 14.13 11.37C14.3795 11.7736 14.6675 12.152 14.99 12.5C15.1864 12.6895 15.427 12.827 15.69 12.9C15.8745 12.94 16.0655 12.94 16.25 12.9C16.4761 12.8542 16.6927 12.7696 16.89 12.65C17.3585 12.3713 17.7422 11.9703 18 11.49C18.1738 11.013 18.2552 10.5074 18.24 9.99998L18.16 8.99998C18.1551 8.94009 18.1551 8.87988 18.16 8.81998C18.8199 8.35806 19.4181 7.81364 19.94 7.19998C20.7475 6.21077 21.2941 5.03495 21.53 3.77998C21.6057 3.22925 21.6057 2.67072 21.53 2.11998C21.5148 1.61922 21.3277 1.13895 21 0.759985C20.6465 0.454604 20.2054 0.269059 19.74 0.229985C19.1917 0.190947 18.6407 0.221186 18.1 0.319985C16.859 0.595569 15.705 1.17256 14.74 1.99998C14.1224 2.53583 13.5748 3.14731 13.11 3.81998H13L12 3.69999C11.4653 3.69655 10.9352 3.79849 10.44 3.99998C9.93739 4.25486 9.52028 4.65112 9.23998 5.13998C9.12595 5.33181 9.04483 5.54138 8.99998 5.75998C8.9598 5.94112 8.9598 6.12885 8.99998 6.30998C9.08101 6.56879 9.22141 6.80508 9.40998 6.99998ZM15.41 2.83998C16.2597 2.18648 17.2545 1.74741 18.31 1.55998C18.6599 1.4996 19.0152 1.47614 19.37 1.48998C19.6156 1.4695 19.8612 1.52915 20.07 1.65998C20.2101 1.87628 20.2735 2.13336 20.25 2.38999C20.2739 2.75405 20.2572 3.11965 20.2 3.47998C20.0522 4.53882 19.6394 5.54319 19 6.39998C18.3358 7.2762 17.5153 8.02207 16.58 8.59999C15.9093 9.06085 15.1749 9.42132 14.4 9.66998C14.1991 9.7432 13.9825 9.76234 13.7719 9.72549C13.5613 9.68863 13.3641 9.59707 13.2 9.45998L12.39 8.68998C12.246 8.5177 12.1499 8.31059 12.1113 8.08943C12.0727 7.86828 12.0929 7.64085 12.17 7.42998C12.4208 6.6554 12.7883 5.92364 13.26 5.25998C13.838 4.33659 14.5762 3.52383 15.44 2.85998L15.41 2.83998Z" fill="black"/>
<path fill-rule="evenodd" clip-rule="evenodd" d="M8.16001 10.88C8.2546 10.9488 8.35914 11.0027 8.47001 11.04L8.39001 11.15C7.99677 11.6255 7.6611 12.1457 7.39001 12.7C7.25131 13.0533 7.22341 13.4404 7.31001 13.81C7.34336 13.9127 7.40179 14.0055 7.48001 14.08C7.55549 14.157 7.64796 14.2152 7.75001 14.25C8.15892 14.3805 8.60028 14.3664 9.00001 14.21C9.55125 13.939 10.0682 13.6033 10.54 13.21L10.65 13.13C10.6891 13.2432 10.7429 13.3508 10.81 13.45C10.9138 13.6595 11.0942 13.8211 11.3139 13.9012C11.5336 13.9812 11.7757 13.9737 11.99 13.88C12.4138 13.6587 12.7361 13.2827 12.89 12.83C12.9988 12.5086 13.0397 12.168 13.01 11.83C12.9741 11.3964 12.9106 10.9655 12.82 10.54C12.8141 10.4892 12.7977 10.4402 12.7719 10.3961C12.7461 10.352 12.7115 10.3137 12.6701 10.2836C12.6288 10.2535 12.5817 10.2323 12.5317 10.2214C12.4818 10.2105 12.4301 10.21 12.38 10.22C12.3299 10.2261 12.2816 10.2422 12.2378 10.2672C12.194 10.2923 12.1556 10.3258 12.1249 10.3658C12.0941 10.4058 12.0717 10.4516 12.0588 10.5004C12.046 10.5492 12.043 10.6 12.05 10.65C12.106 11.0443 12.136 11.4418 12.14 11.84C12.1417 12.0623 12.1009 12.2829 12.02 12.49C12.02 12.58 11.8 12.66 11.7 12.75L11.65 12.09C11.6035 11.927 11.4941 11.7891 11.346 11.7066C11.1979 11.6241 11.0231 11.6037 10.86 11.65L10.58 11.75L9.85001 12.17C9.61001 12.32 9.26001 12.57 8.85001 12.77H8.80001C8.98363 12.425 9.18731 12.0911 9.41001 11.77L9.82001 11.02C9.86054 10.9328 9.89398 10.8425 9.92001 10.75C9.92469 10.7202 9.92469 10.6898 9.92001 10.66C9.94061 10.5828 9.94449 10.5022 9.93136 10.4234C9.91823 10.3446 9.88841 10.2696 9.8439 10.2033C9.79939 10.137 9.74121 10.081 9.67328 10.039C9.60534 9.99707 9.52921 9.97012 9.45001 9.95999L8.73001 9.99999C8.73001 9.99999 8.73001 9.94999 8.67001 9.99999C8.61001 10.05 8.67001 10.1 8.67001 10.09C8.67001 10.08 8.94001 9.75999 9.09001 9.69999C9.29929 9.61237 9.52318 9.56488 9.75001 9.55999C10.148 9.56072 10.5455 9.58744 10.94 9.63999C10.9847 9.64706 11.0304 9.64513 11.0744 9.63431C11.1183 9.6235 11.1597 9.60401 11.196 9.577C11.2323 9.54999 11.2629 9.51599 11.2859 9.47701C11.3089 9.43803 11.3239 9.39484 11.33 9.34999C11.3419 9.29949 11.3424 9.24699 11.3315 9.19627C11.3206 9.14555 11.2986 9.09789 11.267 9.05674C11.2354 9.01559 11.195 8.98197 11.1489 8.95832C11.1027 8.93467 11.0519 8.92157 11 8.91999C10.5772 8.83079 10.1499 8.76403 9.72001 8.71999C9.38271 8.69296 9.04336 8.73029 8.72001 8.82999C8.29187 8.99382 7.93694 9.30616 7.72001 9.70999C7.63005 9.92431 7.62552 10.1649 7.70733 10.3825C7.78915 10.6 7.95112 10.7781 8.16001 10.88Z" fill="black"/>
</g>
<defs>
<clipPath id="clip0_1031_3165">
<rect width="24" height="24" fill="white"/>
</clipPath>
</defs>
</svg>
