<svg width="24" height="24" viewBox="0 0 24 24" fill="none" xmlns="http://www.w3.org/2000/svg">
<g clip-path="url(#clip0_1048_7100)">
<path fill-rule="evenodd" clip-rule="evenodd" d="M23.13 4.50998C23.048 3.7363 22.8349 2.98221 22.5 2.27998C22.2734 1.83594 22.0161 1.40824 21.73 0.999978C21.6708 0.919759 21.5963 0.852137 21.5107 0.801064C21.4251 0.749992 21.3302 0.716494 21.2315 0.702528C21.1328 0.688562 21.0323 0.694409 20.9359 0.719726C20.8395 0.745043 20.7491 0.789324 20.67 0.849978C20.19 1.25998 19.8 1.66998 19.33 2.00998C19.0553 2.22117 18.7523 2.39284 18.43 2.51998C17.04 3.09998 14.9 3.51998 13.58 4.45998C13.0259 4.82433 12.6047 5.3583 12.3793 5.98201C12.154 6.60571 12.1367 7.28561 12.33 7.91998C12.3904 8.16283 12.4707 8.4003 12.57 8.62998L12.72 8.88998C9.94237 10.7088 7.27132 12.6854 4.72 14.81C3.49027 15.7686 2.42032 16.9162 1.55 18.21C1.26579 18.7301 1.06022 19.2896 0.940003 19.87C0.859843 20.2962 0.859843 20.7337 0.940003 21.16C1.03776 21.6587 1.24205 22.1304 1.5389 22.5429C1.83575 22.9554 2.21817 23.2989 2.66 23.55C3.11042 23.8139 3.61642 23.9686 4.13742 24.0016C4.65842 24.0345 5.17989 23.945 5.66 23.74C7.06074 22.8256 8.29232 21.6752 9.3 20.34C11.93 17.25 15 12.93 16.06 11.61C16.1246 11.5278 16.1554 11.4241 16.1461 11.3201C16.1368 11.216 16.0881 11.1194 16.01 11.05C15.9487 11.0152 15.8803 10.9947 15.81 10.99C15.59 10.7 15.39 10.4 15.15 10.12C15.0436 9.99041 14.9265 9.86999 14.8 9.75998C14.6775 9.64338 14.5435 9.53952 14.4 9.44998C14.0719 9.29497 13.7881 9.0598 13.5749 8.76618C13.3617 8.47255 13.2259 8.12994 13.18 7.76998C13.0644 7.29576 13.104 6.79696 13.293 6.34693C13.482 5.8969 13.8104 5.51941 14.23 5.26998C14.8765 4.88798 15.5781 4.60802 16.31 4.43998C16.326 4.59215 16.3666 4.74074 16.43 4.87998C16.6642 5.24684 17.0172 5.52218 17.43 5.65998C17.8015 5.75805 18.1443 5.94315 18.43 6.19998C18.6677 6.50499 18.7915 6.88343 18.78 7.26998C18.7829 7.87396 18.934 8.46801 19.22 8.99998C19.3978 9.21698 19.6193 9.39415 19.87 9.51998C19.4598 9.85855 19.0177 10.1566 18.55 10.41C17.9152 10.7607 17.205 10.9528 16.48 10.97C16.428 10.9659 16.3756 10.9723 16.3261 10.9888C16.2766 11.0054 16.2309 11.0316 16.1917 11.0661C16.1526 11.1007 16.1207 11.1427 16.0981 11.1897C16.0755 11.2367 16.0625 11.2878 16.06 11.34C16.0559 11.392 16.0623 11.4443 16.0789 11.4939C16.0954 11.5434 16.1217 11.5891 16.1562 11.6282C16.1907 11.6674 16.2327 11.6992 16.2797 11.7219C16.3268 11.7445 16.3779 11.7575 16.43 11.76C17.114 11.787 17.7958 11.6676 18.43 11.41C19.3823 11.058 20.2681 10.5475 21.05 9.89998C21.5171 9.50082 21.9157 9.02791 22.23 8.49998C22.5312 7.97546 22.7631 7.41412 22.92 6.82998C23.1311 6.07596 23.2023 5.28965 23.13 4.50998ZM14.23 11.06C14.49 11.23 14.75 11.37 15.01 11.52C13.69 13.12 10.81 16.82 8.32 19.52C7.40582 20.6926 6.30435 21.7062 5.06 22.52C4.77137 22.6378 4.4592 22.6864 4.14841 22.6621C3.83762 22.6378 3.53681 22.5412 3.27 22.38C2.99594 22.2269 2.75835 22.0162 2.57362 21.7624C2.38889 21.5087 2.26142 21.2178 2.2 20.91C2.1512 20.5761 2.17162 20.2357 2.26 19.91C2.36244 19.5333 2.50317 19.168 2.68 18.82C3.74195 17.2522 5.04463 15.8617 6.54 14.7C8.9 12.63 11.63 10.57 12.93 9.62998C13.0915 9.90549 13.2719 10.1695 13.47 10.42C13.6945 10.6682 13.95 10.8866 14.23 11.07V11.06ZM21.76 6.53998C21.6599 7.04831 21.4882 7.53987 21.25 7.99998C21.0618 8.33589 20.8298 8.64528 20.56 8.91998C20.3614 8.84134 20.1932 8.70116 20.08 8.51998C19.9494 8.07878 19.922 7.61345 20 7.15998C20.0178 6.46709 19.7751 5.79272 19.32 5.26998C18.933 4.94719 18.467 4.73321 17.97 4.64998C17.65 4.57998 17.32 4.64998 17.15 4.38998C17.0878 4.34952 17.0364 4.29463 17 4.22998C17.66 4.06998 18.32 3.91998 18.86 3.72998C19.2974 3.57671 19.7088 3.35752 20.08 3.07998C20.4277 2.82823 20.7615 2.55783 21.08 2.26998C21.19 2.52998 21.28 2.81998 21.29 2.83998C21.5728 3.40927 21.7619 4.02046 21.85 4.64998C21.924 5.28064 21.8936 5.9192 21.76 6.53998Z" fill="black"/>
<path fill-rule="evenodd" clip-rule="evenodd" d="M1.27001 4.49999C1.73001 5.34999 0.81001 3.49999 5.46001 12.06C5.50267 12.142 5.57603 12.2038 5.66409 12.2319C5.75214 12.26 5.84774 12.2521 5.93001 12.21C6.01191 12.1672 6.07421 12.0945 6.10399 12.007C6.13378 11.9195 6.12877 11.8239 6.09001 11.74L5.00001 9.22999C5.32186 9.14762 5.63372 9.03026 5.93001 8.87999C6.19898 8.73453 6.45346 8.56376 6.69001 8.36999C7.05001 8.07999 7.35001 7.75999 7.69001 7.46999C7.73532 7.44504 7.77526 7.41141 7.80757 7.37102C7.83988 7.33063 7.86392 7.28427 7.87831 7.23459C7.8927 7.18491 7.89717 7.13288 7.89146 7.08148C7.88574 7.03007 7.86996 6.98029 7.84501 6.93499C7.82006 6.88968 7.78643 6.84973 7.74604 6.81742C7.70565 6.78512 7.65929 6.76108 7.60961 6.74669C7.55993 6.73229 7.5079 6.72782 7.4565 6.73354C7.40509 6.73925 7.35532 6.75504 7.31001 6.77999C6.8621 6.91957 6.42439 7.08997 6.00001 7.28999C5.64185 7.44536 5.30565 7.64708 5.00001 7.88999C4.83001 8.02999 4.67001 8.17999 4.51001 8.32999L3.63001 6.32999L4.11001 6.14999C4.28001 6.06999 4.45001 5.97999 4.60001 5.88999C4.75001 5.79999 4.91001 5.67999 5.06001 5.56999C5.41001 5.28999 5.73001 4.99999 6.06001 4.70999C6.15018 4.65694 6.21559 4.57025 6.24185 4.46898C6.2681 4.36771 6.25305 4.26016 6.20001 4.16999C6.14697 4.07981 6.06027 4.0144 5.959 3.98815C5.85774 3.96189 5.75018 3.97694 5.66001 4.02999C5.24001 4.17999 4.83001 4.30999 4.41001 4.48999C4.23663 4.55916 4.06937 4.64279 3.91001 4.73999C3.74424 4.83263 3.58697 4.93971 3.44001 5.05999C3.34175 5.14826 3.24828 5.24172 3.16001 5.33999C2.92001 4.85999 2.62001 4.33999 2.38001 3.86999C2.32256 3.75525 2.26919 3.63851 2.22001 3.51999C2.47491 3.4215 2.73535 3.33802 3.00001 3.26999C3.53001 2.99999 4.10001 2.69999 4.67001 2.42999C5.24001 2.15999 5.82001 1.90999 6.40001 1.66999C6.6506 1.60956 6.89499 1.52586 7.13001 1.41999V1.49999C7.36001 1.83999 7.57001 2.24999 7.74001 2.49999C8.27001 3.23999 8.74001 4.01999 9.25001 4.80999C9.76001 5.59999 10.17 6.41999 10.57 7.23999C10.5916 7.28797 10.6225 7.33122 10.6608 7.36725C10.6992 7.40328 10.7443 7.43139 10.7935 7.44997C10.8427 7.46855 10.8952 7.47723 10.9478 7.47552C11.0003 7.47381 11.0521 7.46173 11.1 7.43999C11.1951 7.39452 11.2685 7.31333 11.304 7.21408C11.3396 7.11482 11.3346 7.00554 11.29 6.90999C10.93 6.04999 10.51 5.18999 10.07 4.34999C9.63001 3.50999 9.16001 2.67999 8.67001 1.87999C8.48001 1.58999 8.27001 1.06999 8.01001 0.689987C7.86636 0.45694 7.67971 0.253325 7.46001 0.0899869C7.3565 0.0423997 7.24393 0.0177612 7.13001 0.0177612C7.01609 0.0177612 6.90352 0.0423997 6.80001 0.0899869C6.60001 0.139987 6.00001 0.449987 5.93001 0.479987C5.32001 0.709987 4.71001 0.959987 4.12001 1.21999C3.53001 1.47999 2.93001 1.77999 2.36001 2.07999C1.92979 2.30502 1.52137 2.56949 1.14001 2.86999C1.03621 2.96183 0.959124 3.07998 0.916882 3.21199C0.874641 3.34399 0.868812 3.48495 0.90001 3.61999C0.991432 3.92574 1.11548 4.22077 1.27001 4.49999Z" fill="black"/>
<path fill-rule="evenodd" clip-rule="evenodd" d="M17.69 18C17.27 17.2 16.79 16.43 16.36 15.64C16.18 15.31 16 14.97 15.85 14.64C15.806 14.5481 15.7286 14.4765 15.6337 14.4397C15.5387 14.4029 15.4333 14.4037 15.3389 14.442C15.2445 14.4802 15.1683 14.5531 15.1257 14.6456C15.0832 14.7381 15.0776 14.8434 15.11 14.94L16.66 18.5C16.73 18.67 16.87 18.95 16.98 19.24C17.0358 19.3638 17.0728 19.4952 17.09 19.63C16.7647 19.7657 16.4306 19.8793 16.09 19.97L13 21.8C12.86 21.88 12.64 22.02 12.41 22.13L12.17 22.26C12.1406 22.1965 12.1204 22.1291 12.11 22.06L11.61 21.15C11.867 21.1114 12.121 21.0545 12.37 20.98C12.4939 20.9281 12.6141 20.8679 12.73 20.8C12.8451 20.7358 12.9525 20.6586 13.05 20.57C13.3 20.36 13.5 20.14 13.74 19.91C13.8307 19.8575 13.8973 19.7716 13.9254 19.6706C13.9534 19.5696 13.9407 19.4617 13.89 19.37C13.8376 19.2792 13.7516 19.2126 13.6506 19.1846C13.5497 19.1565 13.4417 19.1692 13.35 19.22C13.03 19.31 12.73 19.37 12.42 19.48C12.2922 19.5264 12.1684 19.5832 12.05 19.65C11.9316 19.7139 11.8209 19.7911 11.72 19.88C11.5403 20.0511 11.3732 20.2349 11.22 20.43V20.35C11.1736 20.2691 11.0984 20.2087 11.0094 20.1809C10.9204 20.1531 10.8242 20.1599 10.74 20.2C10.658 20.2426 10.5962 20.316 10.5681 20.404C10.54 20.4921 10.5479 20.5877 10.59 20.67L11.33 22.46C11.386 22.6451 11.4562 22.8256 11.54 23C11.5782 23.0653 11.6302 23.1216 11.6923 23.1647C11.7545 23.2079 11.8254 23.237 11.9 23.25C12.1134 23.3033 12.3366 23.3033 12.55 23.25C12.8944 23.1548 13.2292 23.0276 13.55 22.87C14.01 22.68 14.47 22.47 14.92 22.24C15.58 21.91 16.21 21.53 16.85 21.17C17.2973 20.9608 17.7255 20.7132 18.13 20.43C18.2821 20.3007 18.3875 20.125 18.43 19.93C18.4473 19.6652 18.4099 19.3996 18.32 19.15C18.1398 18.751 17.9291 18.3666 17.69 18Z" fill="black"/>
</g>
<defs>
<clipPath id="clip0_1048_7100">
<rect width="24" height="24" fill="white"/>
</clipPath>
</defs>
</svg>
